<mxfile host="app.diagrams.net" modified="2024-04-08T05:12:24.478Z" agent="Mozilla/5.0 (Macintosh; Intel Mac OS X 10_15_7) AppleWebKit/605.1.15 (KHTML, like Gecko) Version/17.4.1 Safari/605.1.15" etag="ZA4E72IHR5-vFeB6cJbh" version="24.2.2" type="github">
  <diagram name="Page-1" id="B2ja3TreJQgn1e2nwSWu">
    <mxGraphModel dx="1241" dy="747" grid="1" gridSize="10" guides="1" tooltips="1" connect="1" arrows="1" fold="1" page="1" pageScale="1" pageWidth="850" pageHeight="1100" math="0" shadow="0">
      <root>
        <mxCell id="0" />
        <mxCell id="1" parent="0" />
      </root>
    </mxGraphModel>
  </diagram>
</mxfile>
